<?xml version="1.0" standalone="no"?>
<!DOCTYPE svg PUBLIC "-//W3C//DTD SVG 20010904//EN"
 "http://www.w3.org/TR/2001/REC-SVG-20010904/DTD/svg10.dtd">
<svg version="1.0" xmlns="http://www.w3.org/2000/svg"
 width="700.000000pt" height="700.000000pt" viewBox="0 0 700.000000 700.000000"
 preserveAspectRatio="xMidYMid meet">
<metadata>
Created by potrace 1.11, written by Peter Selinger 2001-2013
</metadata>
<g transform="translate(0.000000,700.000000) scale(0.100000,-0.100000)"
fill="#000000" stroke="none">
<path d="M2618 5456 c-477 -479 -880 -887 -895 -906 -15 -19 -30 -37 -33 -40
-17 -14 -104 -136 -152 -210 -154 -240 -265 -511 -322 -793 -22 -109 -29 -156
-41 -277 -6 -55 -6 -351 0 -395 12 -97 25 -192 30 -215 2 -14 10 -50 16 -80
48 -243 175 -546 321 -771 249 -381 624 -700 1016 -863 48 -20 94 -40 102 -45
22 -12 202 -67 295 -90 89 -22 173 -37 255 -46 30 -3 73 -8 95 -11 85 -12 407
-5 495 11 8 1 35 6 60 9 1021 154 1838 999 1955 2021 4 33 9 74 11 90 5 42 5
342 -1 390 -8 76 -17 147 -21 174 -44 245 -109 449 -210 656 -30 61 -60 119
-67 130 -103 163 -146 226 -214 310 -87 108 -1799 1826 -1817 1824 -6 -1 -401
-394 -878 -873z m878 -4161 c-7 -18 -231 3 -384 36 -170 37 -350 109 -498 199
-36 22 -68 40 -70 40 -2 0 -41 28 -86 62 -103 78 -276 251 -355 354 -163 216
-279 479 -322 729 -5 33 -13 78 -17 100 -10 59 -12 373 -2 425 5 25 10 61 13
80 6 51 50 224 75 300 65 194 206 429 350 584 30 32 334 339 675 682 l620 623
3 -2102 c1 -1156 0 -2107 -2 -2112z"/>
</g>
</svg>
